<svg version="1.1" xmlns="http://www.w3.org/2000/svg" xmlns:xlink="http://www.w3.org/1999/xlink" width="24.34538" height="38.68251" viewBox="0,0,24.34538,38.68251"><g transform="translate(-208.26291,-180.12279)"><g data-paper-data="{&quot;isPaintingLayer&quot;:true}" fill-rule="nonzero" stroke-linecap="butt" stroke-linejoin="miter" stroke-miterlimit="10" stroke-dasharray="" stroke-dashoffset="0" style="mix-blend-mode: normal"><path d="M208.76291,218.3053v-22.02914h22.02914v22.02914z" fill="#ffffff" stroke="#000000" stroke-width="1"/><path d="M231.21075,181.80168c2.23607,1.11803 1.11803,3.3541 1.11803,3.3541l-1.30843,2.17878c-4.31164,3.69333 -8.90557,7.05005 -13.36984,10.55772c0,0 -0.50831,0.39938 -1.21106,0.5335c-0.34404,0.21184 -0.79401,0.35037 -1.38251,0.35037c-2.5,0 -2.5,-2.5 -2.5,-2.5c0.0265,-4.1831 -0.95974,-7.34835 -1.70802,-11.44153l-0.34145,-1.70527c0,0 -0.49029,-2.45145 1.96116,-2.94174c2.45145,-0.49029 2.94174,1.96116 2.94174,1.96116l0.35789,1.79142c0.51893,2.87097 1.11287,5.3246 1.4691,7.94276c3.54977,-2.73241 7.13115,-5.43028 10.52901,-8.34468l0.09025,-0.61857c0,0 1.11803,-2.23607 3.3541,-1.11803z" fill="#ff7979" stroke="none" stroke-width="0.5"/><path d="M213.65828,217.95563v-22.02914h5.5947v22.02914z" fill="#ff7979" stroke="#000000" stroke-width="0"/><path d="M209.11258,208.86424v-5.24503h21.67947v5.24503z" fill="#ff7979" stroke="none" stroke-width="0"/></g></g></svg>